<svg width="380" height="176" viewBox="0 0 380 176" fill="none" xmlns="http://www.w3.org/2000/svg">
<path d="M190 0L354.545 60.75H25.4552L190 0Z" fill="#FC9F81"/>
<rect x="330" y="146" width="10" height="280" transform="rotate(90 330 146)" fill="#FC9F81"/>
<rect x="350" y="166" width="10" height="320" transform="rotate(90 350 166)" fill="#FC9F81"/>
<rect x="341" y="155" width="12" height="302" transform="rotate(90 341 155)" fill="white" stroke="#FC9F81" stroke-width="2"/>
<path d="M111.16 86.3065V131.853C111.16 134.141 109.223 136 106.837 136C104.452 136 102.514 134.141 102.514 131.853V86.0893C102.514 80.5565 97.8395 76.0714 92.0724 76.0714H92.0624C86.2903 76.0714 81.6103 80.5613 81.6103 86.0989V131.867C81.6103 134.146 79.6829 135.995 77.3077 135.995C74.9274 136 73 134.151 73 131.867V86.7024C73 76.4142 81.7763 67.7868 92.4951 68.004C97.5979 68.1102 102.207 70.1331 105.569 73.363C109.021 76.6749 111.16 81.2469 111.16 86.3017V86.3065Z" fill="#FC9F81"/>
<path d="M200.961 73.3679C197.509 70.0511 192.739 68.0041 187.47 68.0041C176.937 68.0041 168.392 76.2019 168.392 86.3066V132.944C168.392 134.634 169.816 136 171.578 136H203.367C204.248 136 205.043 135.657 205.621 135.107C206.195 134.552 206.552 133.789 206.552 132.944V86.3066C206.552 81.2518 204.414 76.6798 200.961 73.3679ZM177.003 129.888V86.0942C177.003 80.5566 181.683 76.0715 187.455 76.0715H187.465C193.232 76.0715 197.907 80.5614 197.907 86.0942V129.888H177.003Z" fill="#FC9F81"/>
<path d="M253.066 105.961C252.351 106.646 251.365 107.081 250.278 107.095C251.687 107.115 252.92 107.829 253.63 108.901C254.022 109.495 254.248 110.205 254.248 110.963V131.853C254.248 134.141 252.311 136 249.926 136C247.54 136 245.603 134.141 245.603 131.853V115.945C245.603 114.342 244.929 112.899 243.837 111.846C242.74 110.803 241.235 110.152 239.564 110.152H229.61C227.854 110.152 226.425 108.785 226.425 107.095C226.425 106.251 226.782 105.488 227.361 104.937C227.935 104.382 228.73 104.039 229.61 104.039H242.508C244.219 104.039 245.603 102.712 245.603 101.07V86.0942C245.603 80.5566 240.923 76.0715 235.156 76.0715C229.384 76.0715 224.704 80.5614 224.704 86.099V131.867C224.704 134.146 222.776 136 220.396 136C218.021 136 216.089 134.151 216.089 131.867V86.688C216.089 76.8391 224.472 68.2262 234.733 68.0089C240.173 67.8931 245.11 69.9594 248.658 73.3679C252.11 76.6798 254.248 81.2518 254.248 86.3066V103.233C254.248 103.986 254.022 104.691 253.624 105.285C253.468 105.531 253.277 105.758 253.066 105.961Z" fill="#FC9F81"/>
<path d="M301.995 86.3066V131.853C301.995 134.141 300.058 136 297.672 136C295.287 136 293.349 134.141 293.349 131.853V86.0942C293.349 80.5566 288.674 76.0715 282.902 76.0715H282.897C277.125 76.0715 272.445 80.5614 272.445 86.099V131.867C272.445 134.146 270.518 135.995 268.143 135.995C265.767 135.995 263.84 134.146 263.84 131.867V86.7025C263.84 76.4143 272.616 67.7869 283.335 68.009C288.438 68.1152 293.048 70.1381 296.409 73.3679C299.861 76.6798 302 81.2518 302 86.3066H301.995Z" fill="#FC9F81"/>
<path d="M97.6029 104.039H86.557C84.7977 104.039 83.3716 105.408 83.3716 107.095C83.3716 108.783 84.7977 110.151 86.557 110.151H97.6029C99.3622 110.151 100.788 108.783 100.788 107.095C100.788 105.408 99.3622 104.039 97.6029 104.039Z" fill="#FC9F81"/>
<path d="M288.438 104.039H277.392C275.633 104.039 274.207 105.408 274.207 107.095C274.207 108.783 275.633 110.151 277.392 110.151H288.438C290.197 110.151 291.623 108.783 291.623 107.095C291.623 105.408 290.197 104.039 288.438 104.039Z" fill="#FC9F81"/>
<path d="M150.211 91.3276V86.0942C150.211 80.5566 145.536 76.0715 139.764 76.0715H139.759C133.986 76.0715 129.306 80.5614 129.306 86.099V129.888H150.211V110.152H134.389C132.588 110.152 131.022 108.737 131.068 107.013C131.088 106.202 131.445 105.468 131.999 104.937C132.577 104.382 133.373 104.039 134.253 104.039H158.856V132.944C158.856 133.789 158.499 134.552 157.925 135.107C157.346 135.657 156.551 136 155.671 136H123.882C122.12 136 120.696 134.634 120.696 132.944V86.7025C120.696 76.4143 129.473 67.7869 140.191 68.009C145.294 68.1152 149.904 70.1381 153.265 73.3679C156.717 76.6798 158.856 81.2518 158.856 86.3066V91.3276C158.856 93.616 156.919 95.4748 154.533 95.4748C152.148 95.4748 150.211 93.616 150.211 91.3276Z" fill="#FC9F81"/>
</svg>
