<svg width="220" height="68" viewBox="0 0 220 68" fill="none" xmlns="http://www.w3.org/2000/svg">
<g clip-path="url(#clip0_32_8)">
<path d="M36.661 18.3035V63.8525C36.661 66.141 34.7997 67.9999 32.5081 67.9999C30.2165 67.9999 28.3551 66.141 28.3551 63.8525V18.0862C28.3551 12.5531 23.8638 8.06774 18.3233 8.06774H18.3136C12.7683 8.06774 8.27206 12.5579 8.27206 18.0959V63.867C8.27206 66.1459 6.42039 67.995 4.13845 67.995C1.85166 67.9999 0 66.1507 0 63.867V18.6994C0 8.41054 8.4316 -0.217402 18.7294 -0.000134366C23.6317 0.106085 28.0602 2.12909 31.2897 5.35914C34.6063 8.67127 36.661 13.2435 36.661 18.2986V18.3035Z" fill="white"/>
<path d="M122.935 5.3641C119.619 2.04715 115.035 0 109.973 0C99.8545 0 91.6453 8.19824 91.6453 18.3036V64.9438C91.6453 66.6336 93.0135 68 94.7056 68H125.246C126.092 68 126.856 67.6572 127.412 67.1068C127.963 66.5516 128.306 65.7887 128.306 64.9438V18.3036C128.306 13.2485 126.252 8.67623 122.935 5.3641ZM99.9174 61.8875V18.0912C99.9174 12.5533 104.414 8.06788 109.959 8.06788H109.969C115.509 8.06788 120 12.5581 120 18.0912V61.8875H99.9174Z" fill="white"/>
<path d="M172.993 37.9591C172.306 38.6447 171.359 39.0792 170.314 39.0937C171.668 39.113 172.853 39.8276 173.534 40.8994C173.911 41.4933 174.129 42.2031 174.129 42.9611V63.8526C174.129 66.1411 172.268 68 169.976 68C167.684 68 165.823 66.1411 165.823 63.8526V47.9438C165.823 46.3408 165.175 44.8972 164.126 43.8446C163.072 42.8017 161.627 42.1499 160.022 42.1499H150.459C148.771 42.1499 147.398 40.7836 147.398 39.0937C147.398 38.2488 147.742 37.4859 148.298 36.9355C148.849 36.3803 149.613 36.0375 150.459 36.0375H162.85C164.494 36.0375 165.823 34.7097 165.823 33.0681V18.0912C165.823 12.5532 161.327 8.06786 155.786 8.06786C150.241 8.06786 145.745 12.5581 145.745 18.096V63.8671C145.745 66.146 143.893 68 141.606 68C139.324 68 137.468 66.1508 137.468 63.8671V18.685C137.468 8.83555 145.522 0.222081 155.38 0.00481349C160.607 -0.111063 165.349 1.9554 168.758 5.36409C172.074 8.67621 174.129 13.2485 174.129 18.3036V35.2312C174.129 35.9844 173.911 36.6893 173.529 37.2831C173.38 37.5294 173.196 37.7563 172.993 37.9591Z" fill="white"/>
<path d="M220 18.3036V63.8526C220 66.1411 218.139 68 215.847 68C213.555 68 211.694 66.1411 211.694 63.8526V18.0911C211.694 12.5532 207.203 8.06785 201.657 8.06785H201.653C196.107 8.06785 191.611 12.5581 191.611 18.096V63.8671C191.611 66.146 189.759 67.9951 187.477 67.9951C185.195 67.9951 183.344 66.146 183.344 63.8671V18.6995C183.344 8.41066 191.775 -0.217291 202.073 0.00480487C206.975 0.111025 211.404 2.13403 214.634 5.36408C217.95 8.6762 220.005 13.2485 220.005 18.3036H220Z" fill="white"/>
<path d="M23.6365 36.0375H13.0245C11.3343 36.0375 9.96417 37.4058 9.96417 39.0937C9.96417 40.7816 11.3343 42.1499 13.0245 42.1499H23.6365C25.3267 42.1499 26.6968 40.7816 26.6968 39.0937C26.6968 37.4058 25.3267 36.0375 23.6365 36.0375Z" fill="white"/>
<path d="M206.976 36.0375H196.363C194.673 36.0375 193.303 37.4058 193.303 39.0937C193.303 40.7816 194.673 42.1499 196.363 42.1499H206.976C208.666 42.1499 210.036 40.7816 210.036 39.0937C210.036 37.4058 208.666 36.0375 206.976 36.0375Z" fill="white"/>
<path d="M74.1778 23.3249V18.0911C74.1778 12.5532 69.6864 8.06785 64.1411 8.06785H64.1362C58.5909 8.06785 54.0947 12.5581 54.0947 18.096V61.8875H74.1778V42.1499H58.9777C57.2469 42.1499 55.7433 40.7353 55.7868 39.0116C55.8062 38.2005 56.1494 37.4666 56.6812 36.9355C57.2372 36.3803 58.0011 36.0375 58.8471 36.0375H82.4837V64.9437C82.4837 65.7887 82.1404 66.5515 81.5892 67.1068C81.0333 67.6572 80.2694 68 79.4233 68H48.883C47.1908 68 45.8226 66.6336 45.8226 64.9437V18.6995C45.8226 8.41066 54.2542 -0.217291 64.552 0.00480487C69.4543 0.111025 73.8828 2.13403 77.1124 5.36408C80.4289 8.6762 82.4837 13.2485 82.4837 18.3036V23.3249C82.4837 25.6134 80.6223 27.4723 78.3307 27.4723C76.0391 27.4723 74.1778 25.6134 74.1778 23.3249Z" fill="white"/>
</g>
<defs>
<clipPath id="clip0_32_8">
<rect width="220" height="68" fill="white"/>
</clipPath>
</defs>
</svg>
