<svg width="203" height="68" viewBox="0 0 203 68" fill="none" xmlns="http://www.w3.org/2000/svg">
  <g clip-path="url(#clip0_53_168)">
    <path
      d="M34.4716 18.3035V63.8525C34.4716 66.141 32.7704 67.9999 30.676 67.9999C28.5816 67.9999 26.8804 66.141 26.8804 63.8525V18.0862C26.8804 12.5531 22.7755 8.06774 17.7117 8.06774H17.7029C12.6347 8.06774 8.52539 12.5579 8.52539 18.0959V63.867C8.52539 66.1459 6.83306 67.995 4.74747 67.995C2.65745 67.9999 0.965118 66.1507 0.965118 63.867V18.6994C0.965118 8.41054 8.67121 -0.217402 18.0829 -0.000134366C22.5634 0.106085 26.6108 2.12909 29.5625 5.35914C32.5937 8.67127 34.4716 13.2435 34.4716 18.2986V18.3035Z"
      fill="white" />
    <path
      d="M113.322 5.3641C110.291 2.04715 106.102 0 101.476 0C92.2275 0 84.7247 8.19824 84.7247 18.3036V64.9438C84.7247 66.6336 85.9751 68 87.5217 68H115.434C116.207 68 116.906 67.6572 117.414 67.1068C117.917 66.5516 118.231 65.7887 118.231 64.9438V18.3036C118.231 13.2485 116.353 8.67623 113.322 5.3641ZM92.2849 61.8875V18.0912C92.2849 12.5533 96.3943 8.06788 101.462 8.06788H101.471C106.535 8.06788 110.64 12.5581 110.64 18.0912V61.8875H92.2849Z"
      fill="white" />
    <path
      d="M159.073 37.9591C158.445 38.6447 157.579 39.0792 156.625 39.0937C157.862 39.113 158.944 39.8276 159.567 40.8994C159.912 41.4933 160.111 42.2031 160.111 42.9611V63.8526C160.111 66.1411 158.41 68 156.315 68C154.221 68 152.52 66.1411 152.52 63.8526V47.9438C152.52 46.3408 151.928 44.8972 150.969 43.8446C150.006 42.8017 148.684 42.1499 147.217 42.1499H138.477C136.935 42.1499 135.68 40.7836 135.68 39.0937C135.68 38.2488 135.994 37.4859 136.502 36.9355C137.006 36.3803 137.704 36.0375 138.477 36.0375H149.802C151.305 36.0375 152.52 34.7097 152.52 33.0681V18.0912C152.52 12.5532 148.41 8.06786 143.347 8.06786C138.278 8.06786 134.169 12.5581 134.169 18.096V63.8671C134.169 66.146 132.477 68 130.387 68C128.301 68 126.604 66.1508 126.604 63.8671V18.685C126.604 8.83555 133.966 0.222081 142.975 0.00481349C147.752 -0.111063 152.087 1.9554 155.202 5.36409C158.233 8.67621 160.111 13.2485 160.111 18.3036V35.2312C160.111 35.9844 159.912 36.6893 159.563 37.2831C159.426 37.5294 159.258 37.7563 159.073 37.9591Z"
      fill="white" />
    <path
      d="M202.035 18.3036V63.8526C202.035 66.1411 200.334 68 198.239 68C196.145 68 194.444 66.1411 194.444 63.8526V18.0911C194.444 12.5532 190.339 8.06785 185.271 8.06785H185.266C180.198 8.06785 176.089 12.5581 176.089 18.096V63.8671C176.089 66.146 174.396 67.9951 172.311 67.9951C170.225 67.9951 168.533 66.146 168.533 63.8671V18.6995C168.533 8.41066 176.239 -0.217291 185.651 0.00480487C190.131 0.111025 194.179 2.13403 197.13 5.36408C200.161 8.67621 202.039 13.2485 202.039 18.3036H202.035Z"
      fill="white" />
    <path
      d="M22.5678 36.0375H12.8689C11.3242 36.0375 10.0719 37.4058 10.0719 39.0937C10.0719 40.7816 11.3242 42.1499 12.8689 42.1499H22.5678C24.1126 42.1499 25.3648 40.7816 25.3648 39.0937C25.3648 37.4058 24.1126 36.0375 22.5678 36.0375Z"
      fill="white" />
    <path
      d="M190.131 36.0375H180.432C178.887 36.0375 177.635 37.4058 177.635 39.0937C177.635 40.7816 178.887 42.1499 180.432 42.1499H190.131C191.676 42.1499 192.928 40.7816 192.928 39.0937C192.928 37.4058 191.676 36.0375 190.131 36.0375Z"
      fill="white" />
    <path
      d="M68.7602 23.3249V18.0911C68.7602 12.5532 64.6553 8.06785 59.5871 8.06785H59.5827C54.5145 8.06785 50.4052 12.5581 50.4052 18.096V61.8875H68.7602V42.1499H54.868C53.2861 42.1499 51.9119 40.7353 51.9517 39.0116C51.9694 38.2005 52.2831 37.4666 52.7692 36.9355C53.2773 36.3803 53.9754 36.0375 54.7487 36.0375H76.3514V64.9437C76.3514 65.7887 76.0377 66.5515 75.5339 67.1068C75.0258 67.6572 74.3276 68 73.5544 68H45.6419C44.0954 68 42.8449 66.6336 42.8449 64.9437V18.6995C42.8449 8.41066 50.551 -0.217291 59.9627 0.00480487C64.4432 0.111025 68.4906 2.13403 71.4423 5.36408C74.4735 8.67621 76.3514 13.2485 76.3514 18.3036V23.3249C76.3514 25.6134 74.6502 27.4723 72.5558 27.4723C70.4613 27.4723 68.7602 25.6134 68.7602 23.3249Z"
      fill="white" />
  </g>
  <defs>
    <clipPath id="clip0_53_168">
      <rect width="201.07" height="68" fill="white" transform="translate(0.965118)" />
    </clipPath>
  </defs>
</svg>